<mxfile host="app.diagrams.net" modified="2023-03-02T03:48:32.673Z" agent="5.0 (Windows NT 10.0; Win64; x64) AppleWebKit/537.36 (KHTML, like Gecko) Chrome/110.0.0.0 Safari/537.36" etag="6IOtbwfH5FWrR6evzEio" version="20.8.23" type="github">
  <diagram id="C5RBs43oDa-KdzZeNtuy" name="Page-1">
    <mxGraphModel dx="875" dy="409" grid="1" gridSize="10" guides="1" tooltips="1" connect="1" arrows="1" fold="1" page="1" pageScale="1" pageWidth="827" pageHeight="1169" math="0" shadow="0">
      <root>
        <mxCell id="WIyWlLk6GJQsqaUBKTNV-0" />
        <mxCell id="WIyWlLk6GJQsqaUBKTNV-1" parent="WIyWlLk6GJQsqaUBKTNV-0" />
        <mxCell id="4g1n5a2WsjicXzyoLfau-3" value="" style="edgeStyle=orthogonalEdgeStyle;rounded=0;orthogonalLoop=1;jettySize=auto;html=1;" edge="1" parent="WIyWlLk6GJQsqaUBKTNV-1" source="4g1n5a2WsjicXzyoLfau-0" target="4g1n5a2WsjicXzyoLfau-2">
          <mxGeometry relative="1" as="geometry" />
        </mxCell>
        <mxCell id="4g1n5a2WsjicXzyoLfau-0" value="&lt;font face=&quot;Tahoma&quot;&gt;Vender&lt;/font&gt;" style="rounded=0;whiteSpace=wrap;html=1;" vertex="1" parent="WIyWlLk6GJQsqaUBKTNV-1">
          <mxGeometry x="228.75" y="180" width="70" height="40" as="geometry" />
        </mxCell>
        <mxCell id="4g1n5a2WsjicXzyoLfau-6" value="" style="edgeStyle=orthogonalEdgeStyle;rounded=0;orthogonalLoop=1;jettySize=auto;html=1;fontFamily=Tahoma;fontSize=10;entryX=0;entryY=0.5;entryDx=0;entryDy=0;" edge="1" parent="WIyWlLk6GJQsqaUBKTNV-1" source="4g1n5a2WsjicXzyoLfau-2" target="4g1n5a2WsjicXzyoLfau-10">
          <mxGeometry relative="1" as="geometry">
            <Array as="points">
              <mxPoint x="264" y="355" />
            </Array>
          </mxGeometry>
        </mxCell>
        <mxCell id="4g1n5a2WsjicXzyoLfau-2" value="&lt;font style=&quot;font-size: 10px;&quot; face=&quot;Tahoma&quot;&gt;รับเข้าอ้างอิงจาก PO&lt;br&gt;GR PO (101)&lt;/font&gt;" style="whiteSpace=wrap;html=1;rounded=0;" vertex="1" parent="WIyWlLk6GJQsqaUBKTNV-1">
          <mxGeometry x="210" y="260" width="107.5" height="50" as="geometry" />
        </mxCell>
        <mxCell id="4g1n5a2WsjicXzyoLfau-22" value="" style="edgeStyle=orthogonalEdgeStyle;rounded=0;orthogonalLoop=1;jettySize=auto;html=1;fontFamily=Tahoma;fontSize=10;" edge="1" parent="WIyWlLk6GJQsqaUBKTNV-1" source="4g1n5a2WsjicXzyoLfau-5" target="4g1n5a2WsjicXzyoLfau-21">
          <mxGeometry relative="1" as="geometry" />
        </mxCell>
        <mxCell id="4g1n5a2WsjicXzyoLfau-26" value="" style="edgeStyle=orthogonalEdgeStyle;rounded=0;orthogonalLoop=1;jettySize=auto;html=1;fontFamily=Tahoma;fontSize=10;" edge="1" parent="WIyWlLk6GJQsqaUBKTNV-1" source="4g1n5a2WsjicXzyoLfau-5" target="4g1n5a2WsjicXzyoLfau-25">
          <mxGeometry relative="1" as="geometry" />
        </mxCell>
        <mxCell id="4g1n5a2WsjicXzyoLfau-29" value="" style="edgeStyle=orthogonalEdgeStyle;rounded=0;orthogonalLoop=1;jettySize=auto;html=1;fontFamily=Tahoma;fontSize=10;" edge="1" parent="WIyWlLk6GJQsqaUBKTNV-1" source="4g1n5a2WsjicXzyoLfau-5" target="4g1n5a2WsjicXzyoLfau-28">
          <mxGeometry relative="1" as="geometry" />
        </mxCell>
        <mxCell id="4g1n5a2WsjicXzyoLfau-35" style="edgeStyle=orthogonalEdgeStyle;rounded=0;orthogonalLoop=1;jettySize=auto;html=1;fontFamily=Tahoma;fontSize=10;entryX=0.5;entryY=0;entryDx=0;entryDy=0;" edge="1" parent="WIyWlLk6GJQsqaUBKTNV-1" source="4g1n5a2WsjicXzyoLfau-5" target="4g1n5a2WsjicXzyoLfau-36">
          <mxGeometry relative="1" as="geometry">
            <mxPoint x="210" y="590" as="targetPoint" />
            <Array as="points">
              <mxPoint x="235" y="440" />
            </Array>
          </mxGeometry>
        </mxCell>
        <mxCell id="4g1n5a2WsjicXzyoLfau-5" value="STOCK&lt;br&gt;WH" style="whiteSpace=wrap;html=1;rounded=0;fontFamily=Tahoma;fontSize=10;" vertex="1" parent="WIyWlLk6GJQsqaUBKTNV-1">
          <mxGeometry x="330" y="400" width="140" height="60" as="geometry" />
        </mxCell>
        <mxCell id="4g1n5a2WsjicXzyoLfau-9" value="" style="edgeStyle=orthogonalEdgeStyle;rounded=0;orthogonalLoop=1;jettySize=auto;html=1;fontFamily=Tahoma;fontSize=10;" edge="1" parent="WIyWlLk6GJQsqaUBKTNV-1" source="4g1n5a2WsjicXzyoLfau-7" target="4g1n5a2WsjicXzyoLfau-8">
          <mxGeometry relative="1" as="geometry" />
        </mxCell>
        <mxCell id="4g1n5a2WsjicXzyoLfau-7" value="&lt;font face=&quot;Tahoma&quot;&gt;PD&lt;/font&gt;" style="rounded=0;whiteSpace=wrap;html=1;" vertex="1" parent="WIyWlLk6GJQsqaUBKTNV-1">
          <mxGeometry x="480" y="180" width="70" height="40" as="geometry" />
        </mxCell>
        <mxCell id="4g1n5a2WsjicXzyoLfau-19" value="" style="edgeStyle=orthogonalEdgeStyle;rounded=0;orthogonalLoop=1;jettySize=auto;html=1;fontFamily=Tahoma;fontSize=10;entryX=1;entryY=0.5;entryDx=0;entryDy=0;" edge="1" parent="WIyWlLk6GJQsqaUBKTNV-1" source="4g1n5a2WsjicXzyoLfau-8" target="4g1n5a2WsjicXzyoLfau-10">
          <mxGeometry relative="1" as="geometry">
            <mxPoint x="515" y="415" as="targetPoint" />
            <Array as="points">
              <mxPoint x="510" y="355" />
            </Array>
          </mxGeometry>
        </mxCell>
        <mxCell id="4g1n5a2WsjicXzyoLfau-8" value="&lt;font style=&quot;font-size: 10px;&quot; face=&quot;Tahoma&quot;&gt;รับเข้าจากการผลิต&lt;br&gt;&amp;nbsp;GR PD (511)&lt;/font&gt;" style="whiteSpace=wrap;html=1;rounded=0;" vertex="1" parent="WIyWlLk6GJQsqaUBKTNV-1">
          <mxGeometry x="461.25" y="260" width="107.5" height="50" as="geometry" />
        </mxCell>
        <mxCell id="4g1n5a2WsjicXzyoLfau-20" value="" style="edgeStyle=orthogonalEdgeStyle;rounded=0;orthogonalLoop=1;jettySize=auto;html=1;fontFamily=Tahoma;fontSize=10;" edge="1" parent="WIyWlLk6GJQsqaUBKTNV-1" source="4g1n5a2WsjicXzyoLfau-10" target="4g1n5a2WsjicXzyoLfau-5">
          <mxGeometry relative="1" as="geometry" />
        </mxCell>
        <mxCell id="4g1n5a2WsjicXzyoLfau-10" value="" style="ellipse;whiteSpace=wrap;html=1;rounded=0;fontFamily=Tahoma;fontSize=10;" vertex="1" parent="WIyWlLk6GJQsqaUBKTNV-1">
          <mxGeometry x="394.5" y="350" width="11" height="10" as="geometry" />
        </mxCell>
        <mxCell id="4g1n5a2WsjicXzyoLfau-23" value="" style="edgeStyle=orthogonalEdgeStyle;rounded=0;orthogonalLoop=1;jettySize=auto;html=1;fontFamily=Tahoma;fontSize=10;entryX=1;entryY=0.5;entryDx=0;entryDy=0;" edge="1" parent="WIyWlLk6GJQsqaUBKTNV-1" source="4g1n5a2WsjicXzyoLfau-21" target="4g1n5a2WsjicXzyoLfau-7">
          <mxGeometry relative="1" as="geometry">
            <Array as="points">
              <mxPoint x="600" y="200" />
            </Array>
          </mxGeometry>
        </mxCell>
        <mxCell id="4g1n5a2WsjicXzyoLfau-21" value="ส่งให้ PD&lt;br&gt;(311)" style="whiteSpace=wrap;html=1;fontSize=10;fontFamily=Tahoma;rounded=0;" vertex="1" parent="WIyWlLk6GJQsqaUBKTNV-1">
          <mxGeometry x="560" y="410" width="80" height="40" as="geometry" />
        </mxCell>
        <mxCell id="4g1n5a2WsjicXzyoLfau-27" value="" style="edgeStyle=orthogonalEdgeStyle;rounded=0;orthogonalLoop=1;jettySize=auto;html=1;fontFamily=Tahoma;fontSize=10;" edge="1" parent="WIyWlLk6GJQsqaUBKTNV-1" source="4g1n5a2WsjicXzyoLfau-25">
          <mxGeometry relative="1" as="geometry">
            <mxPoint x="230" y="200" as="targetPoint" />
            <Array as="points">
              <mxPoint x="180" y="200" />
            </Array>
          </mxGeometry>
        </mxCell>
        <mxCell id="4g1n5a2WsjicXzyoLfau-25" value="ส่งคืน Vender&lt;br&gt;(102/122)" style="whiteSpace=wrap;html=1;fontSize=10;fontFamily=Tahoma;rounded=0;" vertex="1" parent="WIyWlLk6GJQsqaUBKTNV-1">
          <mxGeometry x="140" y="410" width="80" height="40" as="geometry" />
        </mxCell>
        <mxCell id="4g1n5a2WsjicXzyoLfau-31" value="" style="edgeStyle=orthogonalEdgeStyle;rounded=0;orthogonalLoop=1;jettySize=auto;html=1;fontFamily=Tahoma;fontSize=10;" edge="1" parent="WIyWlLk6GJQsqaUBKTNV-1" source="4g1n5a2WsjicXzyoLfau-28" target="4g1n5a2WsjicXzyoLfau-30">
          <mxGeometry relative="1" as="geometry" />
        </mxCell>
        <mxCell id="4g1n5a2WsjicXzyoLfau-28" value="ส่งให้ Customer&lt;br&gt;GI DO (621)" style="rounded=0;whiteSpace=wrap;html=1;fontSize=10;fontFamily=Tahoma;" vertex="1" parent="WIyWlLk6GJQsqaUBKTNV-1">
          <mxGeometry x="355" y="540" width="90" height="40" as="geometry" />
        </mxCell>
        <mxCell id="4g1n5a2WsjicXzyoLfau-33" style="edgeStyle=orthogonalEdgeStyle;rounded=0;orthogonalLoop=1;jettySize=auto;html=1;entryX=0.5;entryY=1;entryDx=0;entryDy=0;fontFamily=Tahoma;fontSize=10;" edge="1" parent="WIyWlLk6GJQsqaUBKTNV-1" source="4g1n5a2WsjicXzyoLfau-30" target="4g1n5a2WsjicXzyoLfau-32">
          <mxGeometry relative="1" as="geometry" />
        </mxCell>
        <mxCell id="4g1n5a2WsjicXzyoLfau-30" value="Customer" style="whiteSpace=wrap;html=1;fontSize=10;fontFamily=Tahoma;rounded=0;" vertex="1" parent="WIyWlLk6GJQsqaUBKTNV-1">
          <mxGeometry x="360" y="630" width="80" height="30" as="geometry" />
        </mxCell>
        <mxCell id="4g1n5a2WsjicXzyoLfau-34" style="edgeStyle=orthogonalEdgeStyle;rounded=0;orthogonalLoop=1;jettySize=auto;html=1;fontFamily=Tahoma;fontSize=10;" edge="1" parent="WIyWlLk6GJQsqaUBKTNV-1" source="4g1n5a2WsjicXzyoLfau-32">
          <mxGeometry relative="1" as="geometry">
            <mxPoint x="470" y="439" as="targetPoint" />
            <Array as="points">
              <mxPoint x="550" y="439" />
            </Array>
          </mxGeometry>
        </mxCell>
        <mxCell id="4g1n5a2WsjicXzyoLfau-32" value="Return&lt;br&gt;(622)" style="whiteSpace=wrap;html=1;fontSize=10;fontFamily=Tahoma;rounded=0;" vertex="1" parent="WIyWlLk6GJQsqaUBKTNV-1">
          <mxGeometry x="500" y="540" width="100" height="40" as="geometry" />
        </mxCell>
        <mxCell id="4g1n5a2WsjicXzyoLfau-36" value="ทำลาย&lt;br&gt;GI TO (511/555)" style="rounded=0;whiteSpace=wrap;html=1;fontSize=10;fontFamily=Tahoma;" vertex="1" parent="WIyWlLk6GJQsqaUBKTNV-1">
          <mxGeometry x="190" y="620" width="90" height="40" as="geometry" />
        </mxCell>
      </root>
    </mxGraphModel>
  </diagram>
</mxfile>
